<?xml version="1.0" encoding="UTF-8"?>
<svg id="Layer_1" data-name="Layer 1" xmlns="http://www.w3.org/2000/svg" viewBox="0 0 595.276 218.425">
  <defs>
    <style>
      .cls-1 {
        fill: #fff;
      }
    </style>
  </defs>
  <path class="cls-1" d="M47.68,156.965l-3.879-7.637c-.862-1.697-1.378-3.574-1.317-5.476,.049-1.552,.436-3.382,1.548-5.263,1.677-2.838,4.39-8.2,6.43-12.323,1.04-2.102,3.718-9.565,9.621-9.681,5.244-.103,9.165,5.063,11.924,12.61,7.919,21.664,17.54,10.457,17.54,10.457,0,0-8.69,21.11-13.793,24.85-5.97,4.376-19.438,9.631-28.075-7.537Z"/>
  <path class="cls-1" d="M73.489,78.944l9.078-18.55c1.184-2.419,2.829-4.603,4.934-6.284,4.677-3.736,13.453-8.149,22.892,.41,2.7,2.448,4.773,5.508,6.332,8.802l35.058,74.08s4.56,8.983,13.771,2.371l-8.841,18.501c-1.725,3.61-4.47,6.707-8.027,8.54-2.079,1.071-4.651,1.88-7.756,2.004-10.351,.413-14.729-6.883-17.1-11.899s-36.457-75.991-36.457-75.991c0,0-4.138-9.986-13.885-1.984Z"/>
  <path class="cls-1" d="M142.617,78.944l9.078-18.55c1.184-2.419,2.829-4.603,4.934-6.284,4.677-3.736,13.453-8.149,22.892,.41,2.7,2.448,4.773,5.508,6.332,8.802l35.058,74.08s4.56,8.983,13.771,2.371l-8.841,18.501c-1.725,3.61-4.47,6.707-8.027,8.54-2.079,1.071-4.651,1.88-7.756,2.004-10.351,.413-14.729-6.883-17.1-11.899s-36.457-75.991-36.457-75.991c0,0-4.138-9.986-13.885-1.984Z"/>
  <path class="cls-1" d="M298.153,162.495c-29.843,0-49.942-19.946-49.942-49.941s20.098-50.093,49.942-50.093c29.691,0,49.484,20.098,49.484,50.093s-19.793,49.941-49.484,49.941Zm31.67-49.941c0-20.708-12.638-34.564-31.67-34.564-19.185,0-31.975,13.856-31.975,34.564,0,20.556,12.79,34.411,31.975,34.411,19.032,0,31.67-13.855,31.67-34.411Z"/>
  <path class="cls-1" d="M360.566,63.982c3.654,0,6.243,1.218,7.918,4.721l33.497,64.254,32.888-63.95c1.674-3.198,4.568-5.025,7.765-5.025,5.481,0,11.725,4.872,8.07,12.029l-40.806,80.242c-1.674,2.892-4.72,4.72-7.918,4.72-3.35,0-6.547-1.523-8.222-5.025l-41.72-80.697c-2.741-6.396,3.045-11.268,8.527-11.268Z"/>
  <path class="cls-1" d="M508.443,66.724l43.089,84.504c3.96,6.699-2.131,11.266-7.918,11.266-2.892,0-6.242-1.522-7.765-4.414l-10.658-21.165h-49.028l-10.658,21.165c-1.523,3.197-4.721,4.414-7.613,4.414-5.329,0-11.267-4.871-8.527-10.81l43.395-84.961c1.522-3.351,3.958-4.263,7.918-4.263,3.197,0,6.242,1.218,7.765,4.263Zm-24.818,55.423h34.107l-17.053-33.955-17.053,33.955Z"/>
</svg>