<svg width="226" height="53" viewBox="0 0 226 53" fill="none" xmlns="http://www.w3.org/2000/svg">
<path d="M48.1928 22.3518C48.2477 21.5642 48.1101 20.861 47.4791 20.3352C47.0307 19.9613 46.497 19.7622 45.9356 19.651C44.8803 19.442 43.8177 19.4697 42.7503 19.5692C41.1631 19.7172 39.6818 20.2084 38.2727 20.9246C36.6241 21.7628 35.2129 22.9053 33.998 24.3048C31.721 26.9273 30.0399 29.89 28.8756 33.1538C28.8008 33.3642 28.6974 33.4472 28.4699 33.4446C27.4947 33.4334 26.5168 33.4836 25.5446 33.4286C24.3267 33.3598 23.1075 33.2421 21.9272 32.7375C22.3031 31.8889 22.6776 31.0437 23.0521 30.1985C23.0405 30.1882 23.0284 30.1773 23.0167 30.167C22.39 30.9057 21.7633 31.6444 21.1392 32.3805C19.7959 31.837 18.6563 31.0524 17.742 29.8454C21.1859 24.2053 26.0372 20.4334 32.5241 18.7894C31.8235 20.4304 31.8152 22.055 32.3844 23.696C33.4297 21.1691 34.8081 18.8184 36.5462 16.6131C35.8132 16.7611 35.1869 16.6542 34.5897 16.3521C33.9902 16.0492 33.5577 15.5736 33.1404 14.9902C34.8621 15.0495 36.5194 15.1066 38.2165 15.1655C37.9683 14.5878 37.5496 14.2593 37.0786 13.9923C36.0428 13.405 34.9062 13.1285 33.7454 12.9273C32.0436 12.6326 30.324 12.6503 28.6144 12.7425C27.9406 12.7788 27.262 13.0645 26.6223 13.3271C24.4837 14.2056 22.5133 15.3866 20.7093 16.829C19.831 17.5314 18.9591 18.261 18.1897 19.0772C16.3892 20.9882 14.8314 23.078 14.1519 25.6754C13.6226 27.6977 13.738 29.6697 14.9525 31.454C15.9001 32.8461 17.2464 33.732 18.8155 34.2911C20.0563 34.733 21.3313 35.0285 22.6465 35.1432C23.38 35.2073 24.1122 35.286 24.8457 35.3518C25.2859 35.3912 25.7085 35.7486 25.6847 36.107C25.6527 36.5851 25.2371 36.8587 24.8266 36.8448C22.364 36.7617 19.9356 36.4813 17.6594 35.4751C15.6159 34.572 13.9201 33.2374 13.0318 31.1143C12.7182 30.3647 12.5154 29.5416 12.4198 28.7337C12.089 25.9415 13.0417 23.4843 14.5157 21.1773C15.6414 19.4156 16.9878 17.846 18.5724 16.488C20.9299 14.4683 23.5473 12.8654 26.4199 11.6848C26.4814 11.6597 26.5467 11.6446 26.6691 11.6069C25.6704 10.9695 24.9369 10.1416 24.3487 9.1372C24.4257 9.10301 24.4932 9.04805 24.5624 9.04632C26.6089 8.99482 28.6581 8.85721 30.7012 8.92299C33.761 9.02165 36.7651 9.51889 39.6329 10.6627C40.4806 11.0006 41.3136 11.3564 41.9528 12.0466C42.272 12.3915 42.5202 12.752 42.3676 13.2839C42.7092 13.2839 43.0262 13.2752 43.3424 13.2852C45.0403 13.3401 46.6604 13.6396 47.9929 14.8089C49.0716 15.7553 49.7584 16.884 49.8059 18.3774C49.8565 19.9535 49.2052 21.2119 48.1928 22.3518Z" fill="#E9AD21"/>
<path d="M38.9479 34.3024C38.4536 33.1322 37.97 31.988 37.474 30.8139C35.3422 34.1332 32.9125 37.1681 30.0996 39.9606C34.0041 41.8206 38.1028 42.5983 42.4191 42.7186C42.1894 42.185 41.9879 41.7059 41.7772 41.2308C41.2777 40.103 40.7734 38.9779 40.273 37.851C40.0706 37.3948 40.209 36.9716 40.6169 36.7816C41.0208 36.5934 41.3954 36.7626 41.6181 37.2447C42.022 38.1206 42.4204 38.9991 42.826 39.8862C45.1148 38.8822 47.2915 37.7211 49.2213 36.1576C50.3773 35.2211 51.5117 34.2414 52.5475 33.1755C54.4336 31.2337 55.9028 29.0137 56.5446 26.3336C56.907 24.8203 56.9689 23.3082 56.3781 21.823C56.2142 21.4114 56.3928 21.0103 56.7877 20.8415C57.1332 20.6939 57.5674 20.8354 57.711 21.2383C57.9203 21.8247 58.0631 22.4371 58.2006 23.046C58.2668 23.3394 58.2672 23.6501 58.2767 23.9535C58.3416 26.0467 57.7781 27.9893 56.8279 29.829C56.0628 31.3099 55.1066 32.6601 53.9804 33.8934C51.1432 37.0006 47.7837 39.3665 43.9349 41.0486C43.7762 41.1178 43.6192 41.1905 43.4151 41.2827C43.6971 41.8851 43.947 42.5096 44.2727 43.0912C44.6723 43.8044 44.1931 44.2402 43.6136 44.2467C42.5575 44.2588 41.4996 44.1947 40.4439 44.1402C39.8951 44.1116 39.3462 44.0562 38.8026 43.9757C37.7797 43.8243 36.7521 43.6875 35.7427 43.4703C33.2568 42.9358 30.8694 42.1084 28.6053 40.9404C28.5232 40.898 28.4393 40.8582 28.3597 40.811C27.7447 40.4471 27.7564 40.0182 28.287 39.54C29.0564 38.8467 29.7938 38.1136 30.4984 37.3546C31.2154 36.5817 31.9065 35.7807 32.554 34.9489C33.5881 33.6212 34.5997 32.274 35.5771 30.9039C36.3274 29.8519 37.0108 28.7514 37.7525 27.6293C38.4103 29.2062 39.0547 30.7516 39.7242 32.3567C40.4603 31.9902 41.1856 31.6591 41.8823 31.2757C43.4678 30.4041 44.9984 29.4404 46.4019 28.2949C47.6496 27.2766 48.835 26.1938 49.8644 24.941C50.8336 23.7609 51.6722 22.5085 52.2582 21.0977C52.6738 20.0976 52.9515 19.0633 53.0661 17.9749C53.2469 16.256 52.8472 14.7094 51.8382 13.3237C51.0879 12.2933 50.0443 11.6251 48.912 11.0859C47.6699 10.4943 46.3439 10.2104 44.9902 10.0252C44.6178 9.97415 44.457 9.70714 44.4985 9.27309C44.5305 8.9377 44.7575 8.72954 45.12 8.75421C47.4558 8.91347 49.6118 9.589 51.51 10.9998C53.0133 12.1172 53.9977 13.5825 54.4185 15.4065C54.7364 16.7857 54.6572 18.1666 54.3527 19.5445C53.8277 21.9217 52.6794 23.9751 51.145 25.8346C49.0072 28.4255 46.4066 30.4517 43.515 32.1291C42.0627 32.9712 40.5533 33.6866 38.9505 34.3024H38.9479Z" fill="#E9AD21"/>
<path d="M17.5621 37.474C17.9514 37.4468 18.1382 37.7077 18.3229 37.9907C18.6533 38.4979 18.9413 39.0488 19.3483 39.4881C20.4555 40.6833 21.8706 41.3701 23.4271 41.7964C23.6503 41.8574 23.8955 41.9665 24.0469 42.1309C24.2558 42.3577 24.2709 42.661 24.0763 42.9367C23.8687 43.231 23.5439 43.356 23.178 43.2556C21.3274 42.7493 19.6082 41.976 18.2896 40.541C17.7524 39.9563 17.3316 39.2514 16.929 38.5594C16.6253 38.0379 16.9925 37.4732 17.5626 37.474H17.5621Z" fill="#E9AD21"/>
<path d="M79.8587 29.5209C79.8587 30.2899 79.719 30.9502 79.4401 31.5003C79.1602 32.0507 78.7494 32.4748 78.2079 32.7717C77.6664 33.0694 77.003 33.2179 76.2172 33.2179C75.4313 33.2179 74.7661 33.0694 74.2255 32.7717C73.6841 32.4748 73.2693 32.0468 72.9813 31.4869C72.6924 30.9273 72.5488 30.2725 72.5488 29.5204V18.116H67.675V29.4153C67.675 31.129 68.0063 32.6099 68.6706 33.8601C69.3341 35.109 70.299 36.0754 71.5662 36.7574C72.8321 37.4381 74.3825 37.7791 76.2176 37.7791C78.0526 37.7791 79.6009 37.4381 80.8677 36.7574C82.1336 36.0758 83.0946 35.1095 83.7498 33.8601C84.405 32.6103 84.7324 31.1294 84.7324 29.4153V18.116H79.8587V29.5204V29.5209Z" fill="white"/>
<path d="M99.1957 26.4409C98.0951 25.9424 96.8287 25.6325 95.3968 25.5105L94.1655 25.4053C93.3442 25.3357 92.7672 25.1254 92.4359 24.7761C92.1038 24.4269 91.9386 24.0071 91.9386 23.5177C91.9386 23.1507 92.0298 22.8192 92.2136 22.5215C92.3966 22.2246 92.6677 21.9926 93.0254 21.8265C93.384 21.6603 93.8251 21.5776 94.3488 21.5776C94.908 21.5776 95.3842 21.678 95.7773 21.8793C96.1696 22.0801 96.4719 22.3553 96.6813 22.7045C96.8906 23.0546 96.9957 23.4389 96.9957 23.8587H101.712C101.712 22.6002 101.423 21.495 100.847 20.542C100.271 19.59 99.4362 18.8508 98.345 18.3268C97.2526 17.8018 95.9209 17.54 94.3488 17.54C92.8987 17.54 91.641 17.7767 90.5762 18.248C89.5101 18.7206 88.6849 19.4022 88.1007 20.2932C87.5151 21.1842 87.2223 22.2596 87.2223 23.5181C87.2223 25.2837 87.8079 26.6989 88.9782 27.7656C90.1485 28.8315 91.7206 29.452 93.694 29.6269L94.9253 29.7312C96.0429 29.8195 96.8382 30.0155 97.3101 30.3219C97.7811 30.627 98.0176 31.0602 98.0176 31.6197C98.0176 32.0564 97.8909 32.432 97.6375 32.7466C97.384 33.0612 97.0173 33.3062 96.5368 33.481C96.0563 33.6558 95.4763 33.7428 94.7947 33.7428C94.0085 33.7428 93.3615 33.6377 92.8559 33.4282C92.349 33.2187 91.9688 32.9258 91.7154 32.5501C91.462 32.1745 91.3361 31.7595 91.3361 31.3051H86.6194C86.6194 32.5636 86.929 33.677 87.5492 34.6473C88.1694 35.6175 89.0863 36.3826 90.3007 36.9413C91.5143 37.5 93.012 37.78 94.7943 37.78C96.4538 37.78 97.8728 37.5264 99.0522 37.0201C100.231 36.5129 101.138 35.7967 101.777 34.8697C102.414 33.9436 102.733 32.86 102.733 31.6197C102.733 30.3794 102.419 29.3291 101.79 28.4727C101.161 27.6172 100.297 26.9386 99.1957 26.4409Z" fill="white"/>
<path d="M120.078 20.7247C119.204 19.8596 118.117 19.1828 116.816 18.6933C115.514 18.2039 113.999 17.9589 112.27 17.9589H104.986V37.3602H112.27C113.999 37.3602 115.514 37.0936 116.816 36.56C118.117 36.0278 119.204 35.3111 120.078 34.4106C120.951 33.51 121.606 32.4965 122.043 31.3687C122.48 30.2418 122.699 29.0924 122.699 27.9214V27.345C122.699 26.0688 122.48 24.8631 122.043 23.7267C121.606 22.5903 120.951 21.5906 120.078 20.7247ZM117.405 29.7961C117.161 30.4348 116.811 30.9766 116.358 31.4215C115.903 31.8677 115.349 32.2083 114.694 32.4441C114.039 32.68 113.301 32.7981 112.48 32.7981H109.86V22.5206H112.48C113.301 22.5206 114.039 22.6296 114.694 22.8482C115.349 23.0672 115.903 23.39 116.358 23.8184C116.811 24.2469 117.16 24.78 117.405 25.4179C117.65 26.0553 117.772 26.7945 117.772 27.6332C117.772 28.4372 117.65 29.1582 117.405 29.7961Z" fill="white"/>
<path d="M123.956 18.1169V22.3635H127.519V37.2555H132.392V18.1169H123.956Z" fill="white"/>
<path d="M180.489 20.301L178.671 17.5391L176.853 14.7773L174.171 16.7109L171.489 18.6444L173.696 19.0508L171.022 33.375H170.397L167.478 18.7976H166.64H163.312H162.683L160.192 33.375H159.58L158.268 26.5366L160.263 26.1696L157.582 24.236L154.9 22.3025L153.082 25.0643L151.264 27.8257L153.479 27.4181L155.791 37.2555H163.05L165.034 27.0524L167.163 37.2555H174.578L178.217 19.883L180.489 20.301Z" fill="#E9AD21"/>
<path d="M147.328 26.4409C146.227 25.9424 144.961 25.6325 143.529 25.5105L142.298 25.4053C141.476 25.3357 140.899 25.1254 140.568 24.7761C140.236 24.4269 140.071 24.0071 140.071 23.5177C140.071 23.1507 140.162 22.8192 140.346 22.5215C140.529 22.2246 140.8 21.9926 141.158 21.8265C141.516 21.6603 141.957 21.5776 142.481 21.5776C143.04 21.5776 143.516 21.678 143.91 21.8793C144.302 22.0801 144.604 22.3553 144.814 22.7045C145.023 23.0546 145.128 23.4389 145.128 23.8587H149.844C149.844 22.6002 149.556 21.495 148.979 20.542C148.403 19.59 147.568 18.8508 146.477 18.3268C145.385 17.8018 144.053 17.54 142.481 17.54C141.031 17.54 139.774 17.7767 138.708 18.248C137.642 18.7206 136.817 19.4022 136.232 20.2932C135.647 21.1842 135.354 22.2596 135.354 23.5181C135.354 25.2837 135.94 26.6989 137.11 27.7656C138.28 28.8315 139.852 29.452 141.826 29.6269L143.057 29.7312C144.175 29.8195 144.97 30.0155 145.442 30.3219C145.913 30.627 146.149 31.0602 146.149 31.6197C146.149 32.0564 146.023 32.432 145.769 32.7466C145.516 33.0612 145.149 33.3062 144.669 33.481C144.188 33.6558 143.608 33.7428 142.927 33.7428C142.14 33.7428 141.493 33.6377 140.988 33.4282C140.481 33.2187 140.101 32.9258 139.847 32.5501C139.594 32.1745 139.468 31.7595 139.468 31.3051H134.751C134.751 32.5636 135.061 33.677 135.681 34.6473C136.301 35.6175 137.218 36.3826 138.433 36.9413C139.646 37.5 141.144 37.78 142.926 37.78C144.586 37.78 146.005 37.5264 147.184 37.0201C148.363 36.5129 149.27 35.7967 149.909 34.8697C150.546 33.9436 150.865 32.86 150.865 31.6197C150.865 30.3794 150.55 29.3291 149.922 28.4727C149.293 27.6172 148.428 26.939 147.328 26.4414L147.328 26.4409Z" fill="#E9AD21"/>
<path d="M184.141 18.1169L178.009 37.2555H182.883L184.234 32.8249H191.872L193.259 37.2555H198.29L191.949 18.1169H184.141ZM185.449 28.8393L187.518 22.0489H188.497L190.624 28.8393H185.449Z" fill="#E9AD21"/>
<path d="M214.561 21.1574C213.915 20.1262 212.993 19.3355 211.797 18.7842C210.601 18.2337 209.181 17.9589 207.54 17.9589H200.177V37.2551H205.051V32.1689H207.54C209.181 32.1689 210.601 31.8889 211.797 31.3293C212.993 30.7706 213.915 29.9752 214.561 28.944C215.208 27.9127 215.531 26.6893 215.531 25.2729V24.854C215.531 23.4212 215.208 22.1882 214.561 21.1574ZM210.239 26.6106C209.994 27.0481 209.653 27.3843 209.217 27.6202C208.78 27.856 208.264 27.9742 207.671 27.9742H205.051V22.1536H207.671C208.264 22.1536 208.78 22.2674 209.217 22.4946C209.653 22.7218 209.994 23.0542 210.239 23.4908C210.483 23.9275 210.606 24.4524 210.606 25.0639C210.606 25.6585 210.483 26.1739 210.239 26.6106Z" fill="#E9AD21"/>
</svg>
