<?xml version="1.0" encoding="UTF-8"?>
<svg id="Layer_1" data-name="Layer 1" xmlns="http://www.w3.org/2000/svg" viewBox="0 0 595.276 595.276">
  <defs>
    <style>
      .cls-1 {
        fill: #fff;
      }
    </style>
  </defs>
  <path class="cls-1" d="M74.322,414.95l-9.529-18.763c-2.117-4.169-3.384-8.78-3.236-13.453,.121-3.814,1.072-8.309,3.802-12.93,4.119-6.971,10.785-20.145,15.796-30.273,2.555-5.163,9.133-23.498,23.636-23.783,12.883-.253,22.517,12.439,29.294,30.979,19.456,53.221,43.091,25.69,43.091,25.69,0,0-21.349,51.86-33.885,61.049-14.665,10.75-47.754,23.66-68.971-18.517Z"/>
  <path class="cls-1" d="M137.727,223.278l22.301-45.571c2.909-5.944,6.951-11.308,12.122-15.438,11.491-9.177,33.049-20.018,56.239,1.008,6.632,6.013,11.725,13.532,15.555,21.624l86.127,181.991s11.202,22.069,33.831,5.825l-21.719,45.45c-4.238,8.869-10.981,16.477-19.719,20.979-5.107,2.632-11.425,4.618-19.054,4.923-25.429,1.015-36.184-16.909-42.009-29.231-5.825-12.323-89.563-186.687-89.563-186.687,0,0-10.166-24.533-34.111-4.873Z"/>
  <path class="cls-1" d="M307.555,223.278l22.301-45.571c2.909-5.944,6.951-11.308,12.122-15.438,11.491-9.177,33.049-20.018,56.239,1.008,6.632,6.013,11.725,13.532,15.555,21.624l86.127,181.991s11.202,22.069,33.831,5.825l-21.719,45.45c-4.238,8.869-10.981,16.477-19.719,20.979-5.107,2.632-11.425,4.618-19.054,4.923-25.429,1.015-36.184-16.909-42.009-29.231-5.825-12.323-89.563-186.687-89.563-186.687,0,0-10.166-24.533-34.111-4.873Z"/>
</svg>